<?xml version="1.0" encoding="utf-8"?>
<!-- Generator: Adobe Illustrator 15.0.0, SVG Export Plug-In . SVG Version: 6.00 Build 0)  -->
<!DOCTYPE svg PUBLIC "-//W3C//DTD SVG 1.0//EN" "http://www.w3.org/TR/2001/REC-SVG-20010904/DTD/svg10.dtd">
<svg version="1.0" id="Capa_2" xmlns="http://www.w3.org/2000/svg" xmlns:xlink="http://www.w3.org/1999/xlink" x="0px" y="0px"
	 width="57.75px" height="57.833px" viewBox="0 0 57.75 57.833" enable-background="new 0 0 57.75 57.833" xml:space="preserve">
<g>
	<path d="M57.534,28.746c0-15.738-12.759-28.496-28.496-28.496C13.3,0.25,0.542,13.008,0.542,28.746
		c0,13.415,9.272,24.658,21.756,27.687c-0.208-0.41-0.343-0.845-0.385-1.302c0,0-0.043-3.277-0.075-6.112
		c-0.012,0.002-0.023,0.007-0.035,0.01c-1.749,0.363-6.761,0.277-8.083-1.407c-1.322-1.686-1.792-3.306-2.389-4.095
		c-0.597-0.79-1.706-2.303-3.028-3.05C7.646,40.106,7.94,39.56,9.369,39.73c1.429,0.17,2.261,0.256,4.798,3.476
		c2.531,3.213,5.635,2.754,7.641,1.947c0.021-1.574,0.771-3.035,1.76-3.703c-5.813-0.808-12.652-3.205-12.652-13.726
		c0-2.622,0.72-6.09,3.087-8.072c-1.134-1.905-0.814-5.364,0.066-7.398c2.738-0.048,6.166,1.473,7.719,3.026
		c3.39-1.702,10.812-1.863,14.146,0c1.553-1.553,4.979-3.075,7.719-3.026c0.882,2.034,1.201,5.493,0.066,7.398
		c2.368,1.982,3.088,5.451,3.088,8.072c0,10.521-6.84,12.918-12.652,13.726c1.006,0.678,1.766,2.172,1.766,3.773
		s-0.107,9.908-0.107,9.908c-0.146,0.525-0.338,0.996-0.565,1.425C47.997,53.722,57.534,42.351,57.534,28.746z"/>
	<path fill="#41FFEC" d="M35.92,45.223c0-1.602-0.76-3.096-1.766-3.773c5.813-0.808,12.652-3.205,12.652-13.726
		c0-2.622-0.72-6.09-3.086-8.072c1.133-1.905,0.813-5.364-0.068-7.398c-2.737-0.048-6.166,1.473-7.719,3.026
		c-3.332-1.863-10.754-1.702-14.146,0c-1.553-1.553-4.98-3.075-7.719-3.026c-0.88,2.034-1.201,5.493-0.066,7.398
		c-2.368,1.982-3.087,5.451-3.087,8.072c0,10.521,6.839,12.918,12.652,13.726c-0.99,0.668-1.739,2.129-1.76,3.703
		c-2.006,0.807-5.109,1.266-7.641-1.947c-2.538-3.22-3.37-3.306-4.798-3.476c-1.429-0.17-1.723,0.376-1.066,0.747
		c1.322,0.747,2.431,2.26,3.028,3.05c0.597,0.789,1.066,2.41,2.389,4.095c1.322,1.686,6.334,1.771,8.083,1.407
		c0.012-0.002,0.023-0.007,0.035-0.01c0.032,2.835,0.075,6.112,0.075,6.112c0.042,0.457,0.176,0.893,0.385,1.302
		c2.161,0.524,4.417,0.81,6.74,0.81c2.132,0,4.208-0.242,6.207-0.687c0.229-0.431,0.421-0.899,0.565-1.425
		C35.813,55.131,35.92,46.825,35.92,45.223z"/>
</g>
</svg>
