<?xml version="1.0" encoding="utf-8"?>
<!-- Generator: Adobe Illustrator 15.0.0, SVG Export Plug-In . SVG Version: 6.00 Build 0)  -->
<!DOCTYPE svg PUBLIC "-//W3C//DTD SVG 1.0//EN" "http://www.w3.org/TR/2001/REC-SVG-20010904/DTD/svg10.dtd">
<svg version="1.0" id="Capa_1" xmlns="http://www.w3.org/2000/svg" xmlns:xlink="http://www.w3.org/1999/xlink" x="0px" y="0px"
	 width="40.875px" height="40.625px" viewBox="0 0 40.875 40.625" enable-background="new 0 0 40.875 40.625" xml:space="preserve">
<circle fill-rule="evenodd" clip-rule="evenodd" fill="none" stroke="#C5C5C5" stroke-width="0.5669" stroke-miterlimit="22.9256" cx="20.75" cy="20.016" r="18.818"/>
<path fill-rule="evenodd" clip-rule="evenodd" fill="#C5C5C5" d="M18.241,23.779v-7.527l6.519,3.764L18.241,23.779L18.241,23.779z
	 M32.771,13.977c-0.289-1.08-1.139-1.93-2.219-2.219c-1.956-0.524-9.803-0.524-9.803-0.524s-7.846,0-9.803,0.524
	c-1.079,0.289-1.93,1.139-2.218,2.219c-0.524,1.956-0.524,6.039-0.524,6.039s0,4.082,0.524,6.039
	c0.288,1.079,1.139,1.93,2.218,2.218c1.957,0.524,9.803,0.524,9.803,0.524s7.847,0,9.803-0.524c1.08-0.288,1.93-1.139,2.219-2.218
	c0.524-1.957,0.524-6.039,0.524-6.039S33.296,15.933,32.771,13.977z"/>
</svg>
