<?xml version="1.0" encoding="utf-8"?>
<!-- Generator: Adobe Illustrator 15.0.0, SVG Export Plug-In . SVG Version: 6.00 Build 0)  -->
<!DOCTYPE svg PUBLIC "-//W3C//DTD SVG 1.0//EN" "http://www.w3.org/TR/2001/REC-SVG-20010904/DTD/svg10.dtd">
<svg version="1.0" id="Capa_1" xmlns="http://www.w3.org/2000/svg" xmlns:xlink="http://www.w3.org/1999/xlink" x="0px" y="0px"
	 width="40.875px" height="40.625px" viewBox="0 0 40.875 40.625" enable-background="new 0 0 40.875 40.625" xml:space="preserve">
<circle fill="none" stroke="#C5C5C5" stroke-width="0.5669" stroke-miterlimit="22.9256" cx="20.75" cy="20.016" r="18.818"/>
<path fill="#C5C5C5" d="M25.426,30.981c0-1.045-0.495-2.021-1.152-2.463c3.795-0.527,8.26-2.093,8.26-8.961
	c0-1.711-0.471-3.976-2.015-5.27c0.739-1.243,0.53-3.501-0.044-4.83c-1.787-0.031-4.025,0.962-5.039,1.976
	c-2.176-1.216-7.021-1.111-9.235,0c-1.014-1.014-3.252-2.007-5.039-1.976c-0.575,1.328-0.784,3.586-0.044,4.83
	c-1.546,1.294-2.015,3.559-2.015,5.27c0,6.868,4.464,8.434,8.259,8.961c-0.646,0.436-1.135,1.39-1.148,2.417
	c-1.31,0.527-3.336,0.826-4.988-1.271c-1.657-2.103-2.2-2.158-3.132-2.27c-0.933-0.11-1.126,0.246-0.696,0.488
	c0.863,0.487,1.587,1.475,1.977,1.99s0.696,1.574,1.56,2.674c0.863,1.101,4.135,1.156,5.276,0.918
	c0.009-0.001,0.016-0.004,0.023-0.006c0.021,1.851,0.049,3.99,0.049,3.99c0.027,0.299,0.115,0.583,0.251,0.85
	c1.411,0.343,2.884,0.528,4.4,0.528c1.392,0,2.747-0.157,4.053-0.448c0.148-0.28,0.274-0.587,0.368-0.93
	C25.356,37.45,25.426,32.027,25.426,30.981z"/>
</svg>
