<?xml version="1.0" encoding="utf-8"?>
<!-- Generator: Adobe Illustrator 15.0.0, SVG Export Plug-In . SVG Version: 6.00 Build 0)  -->
<!DOCTYPE svg PUBLIC "-//W3C//DTD SVG 1.0//EN" "http://www.w3.org/TR/2001/REC-SVG-20010904/DTD/svg10.dtd">
<svg version="1.0" id="Capa_1" xmlns="http://www.w3.org/2000/svg" xmlns:xlink="http://www.w3.org/1999/xlink" x="0px" y="0px"
	 width="40.875px" height="40.625px" viewBox="0 0 40.875 40.625" enable-background="new 0 0 40.875 40.625" xml:space="preserve">
<circle fill-rule="evenodd" clip-rule="evenodd" fill="none" stroke="#C5C5C5" stroke-width="0.5669" stroke-miterlimit="22.9256" cx="20.405" cy="20.391" r="18.818"/>
<path fill-rule="evenodd" clip-rule="evenodd" fill="#C5C5C5" d="M21.861,17.823c0.309-0.348,0.563-0.7,0.881-0.999
	c0.976-0.92,2.13-1.384,3.478-1.372c0.741,0.006,1.473,0.06,2.187,0.266c1.634,0.473,2.583,1.597,3.035,3.192
	c0.34,1.196,0.402,2.425,0.404,3.657c0.004,2.6-0.008,5.199-0.002,7.799c0.001,0.243-0.067,0.308-0.307,0.305
	c-1.339-0.011-2.679-0.011-4.018,0.001c-0.236,0.002-0.287-0.071-0.286-0.294c0.007-2.474,0.009-4.946,0.001-7.421
	c-0.002-0.619-0.042-1.239-0.215-1.842c-0.321-1.11-1.115-1.676-2.278-1.614c-1.588,0.084-2.414,0.87-2.617,2.485
	c-0.048,0.386-0.071,0.771-0.071,1.16c0.002,2.405-0.002,4.812,0.006,7.217c0.001,0.239-0.059,0.311-0.304,0.309
	c-1.349-0.013-2.698-0.011-4.047-0.001c-0.216,0.001-0.279-0.057-0.278-0.275c0.006-4.763,0.006-9.525,0-14.288
	c0-0.236,0.077-0.291,0.3-0.289c1.281,0.01,2.563,0.011,3.843-0.001c0.236-0.002,0.296,0.074,0.291,0.298
	C21.853,16.684,21.861,17.254,21.861,17.823z"/>
<path fill-rule="evenodd" clip-rule="evenodd" fill="#C5C5C5" d="M14.523,23.266c0,2.356-0.004,4.713,0.006,7.068
	c0.001,0.263-0.064,0.342-0.335,0.339c-1.338-0.016-2.677-0.012-4.016-0.002c-0.214,0.001-0.279-0.053-0.279-0.274
	c0.006-4.771,0.006-9.541,0.001-14.312c0-0.197,0.048-0.268,0.258-0.267c1.358,0.009,2.716,0.012,4.074-0.001
	c0.261-0.003,0.297,0.099,0.296,0.322C14.521,18.515,14.523,20.891,14.523,23.266z"/>
<path fill-rule="evenodd" clip-rule="evenodd" fill="#C5C5C5" d="M14.893,11.091c0.001,1.479-1.2,2.685-2.675,2.686
	c-1.458,0-2.668-1.206-2.673-2.662C9.54,9.642,10.75,8.43,12.223,8.431C13.686,8.432,14.892,9.634,14.893,11.091z"/>
</svg>
