<?xml version="1.0" encoding="utf-8"?>
<!-- Generator: Adobe Illustrator 15.0.0, SVG Export Plug-In . SVG Version: 6.00 Build 0)  -->
<!DOCTYPE svg PUBLIC "-//W3C//DTD SVG 1.0//EN" "http://www.w3.org/TR/2001/REC-SVG-20010904/DTD/svg10.dtd">
<svg version="1.0" id="Capa_1" xmlns="http://www.w3.org/2000/svg" xmlns:xlink="http://www.w3.org/1999/xlink" x="0px" y="0px"
	 width="40.875px" height="40.625px" viewBox="0 0 40.875 40.625" enable-background="new 0 0 40.875 40.625" xml:space="preserve">
<circle fill-rule="evenodd" clip-rule="evenodd" fill="none" stroke="#C5C5C5" stroke-width="0.5669" stroke-miterlimit="22.9256" cx="20.586" cy="20.266" r="18.818"/>
<path fill-rule="evenodd" clip-rule="evenodd" fill="#C5C5C5" d="M26.084,28.847l-5.157-7.493l-0.734-1.066l-5.984-8.695h2.574
	l4.84,7.032l0.734,1.066l6.302,9.156H26.084L26.084,28.847z M29.723,28.115l-6.495-9.438l-0.735-1.067l-4.646-6.751l-0.385-0.56
	h-5.71l1.393,2.024l6.179,8.977l0.734,1.066l4.964,7.213l0.385,0.559h5.71L29.723,28.115z"/>
<polygon fill-rule="evenodd" clip-rule="evenodd" fill="#C5C5C5" points="20.192,20.287 20.927,21.354 20.057,22.367 13.376,30.139 
	11.729,30.139 19.322,21.301 "/>
<polygon fill-rule="evenodd" clip-rule="evenodd" fill="#C5C5C5" points="30.428,10.3 23.228,18.678 22.356,19.69 21.622,18.624 
	22.492,17.61 27.37,11.933 28.781,10.3 "/>
</svg>
