<?xml version="1.0" encoding="utf-8"?>
<!-- Generator: Adobe Illustrator 15.0.0, SVG Export Plug-In . SVG Version: 6.00 Build 0)  -->
<!DOCTYPE svg PUBLIC "-//W3C//DTD SVG 1.0//EN" "http://www.w3.org/TR/2001/REC-SVG-20010904/DTD/svg10.dtd">
<svg version="1.0" id="Capa_1" xmlns="http://www.w3.org/2000/svg" xmlns:xlink="http://www.w3.org/1999/xlink" x="0px" y="0px"
	 width="61.819px" height="211.76px" viewBox="0 0 61.819 211.76" enable-background="new 0 0 61.819 211.76" xml:space="preserve">
<g>
	<rect fill="#79C8CC" width="61.819" height="211.76"/>
	
		<polyline fill="none" stroke="#F1870B" stroke-width="5" stroke-linecap="round" stroke-linejoin="round" stroke-miterlimit="10" points="
		7.37,8.966 20.958,8.966 20.958,24.583 54.841,24.583 	"/>
	
		<polyline fill="none" stroke="#F1870B" stroke-width="5" stroke-linecap="round" stroke-linejoin="round" stroke-miterlimit="10" points="
		43.064,25.394 43.064,55.613 14.098,55.613 	"/>
	
		<polyline fill="none" stroke="#F1870B" stroke-width="5" stroke-linecap="round" stroke-linejoin="round" stroke-miterlimit="10" points="
		13.859,55.815 13.859,77.313 34.546,77.313 34.546,89.887 20.35,89.887 20.35,111.939 6.161,111.939 	"/>
	
		<polyline fill="none" stroke="#F1870B" stroke-width="5" stroke-linecap="round" stroke-linejoin="round" stroke-miterlimit="10" points="
		35.38,84.209 43.876,84.209 43.876,110.777 31.082,110.777 31.082,203.531 	"/>
	
		<line fill="none" stroke="#F1870B" stroke-width="5" stroke-linecap="round" stroke-linejoin="round" stroke-miterlimit="10" x1="31.054" y1="186.426" x2="8.299" y2="186.426"/>
	<g>
		<circle fill="#032E3F" cx="7.978" cy="8.763" r="3.858"/>
		<circle fill="#79C8CC" cx="7.979" cy="8.763" r="2.186"/>
	</g>
	<g>
		<circle fill="#032E3F" cx="55.241" cy="24.62" r="3.858"/>
		<circle fill="#79C8CC" cx="55.242" cy="24.62" r="2.186"/>
	</g>
	<g>
		<circle fill="#032E3F" cx="13.951" cy="55.82" r="3.858"/>
		<circle fill="#79C8CC" cx="13.952" cy="55.82" r="2.186"/>
	</g>
	<g>
		<circle fill="#032E3F" cx="34.235" cy="77.649" r="3.858"/>
		<circle fill="#79C8CC" cx="34.236" cy="77.649" r="2.186"/>
	</g>
	<g>
		<circle fill="#032E3F" cx="34.235" cy="90.624" r="3.858"/>
		<circle fill="#79C8CC" cx="34.236" cy="90.624" r="2.186"/>
	</g>
	<g>
		<circle fill="#032E3F" cx="20.953" cy="111.703" r="3.858"/>
		<circle fill="#79C8CC" cx="20.954" cy="111.703" r="2.186"/>
	</g>
	<g>
		<circle fill="#032E3F" cx="5.92" cy="111.703" r="3.858"/>
		<circle fill="#79C8CC" cx="5.921" cy="111.703" r="2.186"/>
	</g>
	<g>
		<circle fill="#032E3F" cx="43.709" cy="84.548" r="3.858"/>
		<circle fill="#79C8CC" cx="43.71" cy="84.548" r="2.186"/>
	</g>
	<g>
		<circle fill="#032E3F" cx="43.297" cy="110.496" r="3.858"/>
		<circle fill="#79C8CC" cx="43.298" cy="110.496" r="2.186"/>
	</g>
	<g>
		<circle fill="#032E3F" cx="8.597" cy="186.486" r="3.858"/>
		<circle fill="#79C8CC" cx="8.598" cy="186.486" r="2.186"/>
	</g>
	<g>
		<circle fill="#032E3F" cx="31.456" cy="203.324" r="3.858"/>
		<circle fill="#79C8CC" cx="31.457" cy="203.324" r="2.186"/>
	</g>
	<g>
		<circle fill="#032E3F" cx="42.68" cy="55.612" r="6.94"/>
		<circle fill="#79C8CC" cx="42.682" cy="55.612" r="5.017"/>
	</g>
	<g>
		<path fill="#F1870B" d="M54.548,148.51c0,12.83-10.396,23.234-23.227,23.234S8.086,161.34,8.086,148.51
			c0-12.832,10.404-23.229,23.235-23.229S54.548,135.678,54.548,148.51z"/>
		<circle fill="#032E3F" cx="31.322" cy="148.51" r="21.151"/>
	</g>
	<g>
		<polygon fill="#F1870B" points="30.866,144.465 31.555,147.242 21.165,140.949 		"/>
		<polygon fill="#068D8C" points="28.773,147.918 31.555,147.242 21.165,140.951 		"/>
		<polygon fill="#F1870B" points="28.762,147.889 31.538,147.201 25.246,157.59 		"/>
		<polygon fill="#068D8C" points="32.213,149.982 31.538,147.201 25.247,157.59 		"/>
		<polygon fill="#F1870B" points="32.187,149.994 31.497,147.217 41.885,153.51 		"/>
		<polygon fill="#068D8C" points="34.278,146.543 31.497,147.217 41.887,153.508 		"/>
		<polygon fill="#F1870B" points="34.29,146.568 31.515,147.258 37.806,136.869 		"/>
		<polygon fill="#068D8C" points="30.838,144.479 31.515,147.258 37.806,136.869 		"/>
		<polygon fill="#F1870B" points="33.708,143.676 31.543,147.271 27.295,129.975 		"/>
		<polygon fill="#FFFFFF" points="27.959,145.088 31.541,147.271 27.294,129.975 		"/>
		<polygon fill="#F1870B" points="27.974,145.047 31.568,147.211 14.271,151.461 		"/>
		<polygon fill="#FFFFFF" points="29.385,150.797 31.568,147.215 14.271,151.463 		"/>
		<polygon fill="#F1870B" points="29.345,150.781 31.509,147.189 35.756,164.484 		"/>
		<polygon fill="#FFFFFF" points="35.094,149.371 31.51,147.188 35.759,164.482 		"/>
		<polygon fill="#F1870B" points="35.078,149.412 31.484,147.246 48.781,143 		"/>
		<polygon fill="#FFFFFF" points="33.668,143.664 31.484,147.246 48.78,142.998 		"/>
	</g>
</g>
</svg>
