<?xml version="1.0" encoding="utf-8"?>
<!-- Generator: Adobe Illustrator 15.0.0, SVG Export Plug-In . SVG Version: 6.00 Build 0)  -->
<!DOCTYPE svg PUBLIC "-//W3C//DTD SVG 1.0//EN" "http://www.w3.org/TR/2001/REC-SVG-20010904/DTD/svg10.dtd">
<svg version="1.0" id="Capa_1" xmlns="http://www.w3.org/2000/svg" xmlns:xlink="http://www.w3.org/1999/xlink" x="0px" y="0px"
	 width="61.819px" height="211.76px" viewBox="0 0 61.819 211.76" enable-background="new 0 0 61.819 211.76" xml:space="preserve">
<rect fill="#F1870B" width="61.819" height="211.76"/>
<circle fill="#032E3F" cx="6.934" cy="5.894" r="3.858"/>
<circle fill="#79C8CC" cx="6.934" cy="5.894" r="2.186"/>
<circle fill="#032E3F" cx="16.689" cy="5.894" r="3.858"/>
<circle fill="#79C8CC" cx="16.69" cy="5.894" r="2.186"/>
<circle fill="#032E3F" cx="26.445" cy="5.894" r="3.858"/>
<circle fill="#79C8CC" cx="26.446" cy="5.894" r="2.186"/>
<circle fill="#032E3F" cx="36.201" cy="5.894" r="3.858"/>
<circle fill="#79C8CC" cx="36.202" cy="5.894" r="2.186"/>
<circle fill="#032E3F" cx="45.957" cy="5.894" r="3.858"/>
<circle fill="#79C8CC" cx="45.958" cy="5.894" r="2.186"/>
<circle fill="#032E3F" cx="55.713" cy="5.894" r="3.858"/>
<circle fill="#79C8CC" cx="55.713" cy="5.894" r="2.186"/>
<circle fill="#032E3F" cx="6.934" cy="15.894" r="3.858"/>
<circle fill="#79C8CC" cx="6.934" cy="15.894" r="2.186"/>
<circle fill="#032E3F" cx="16.689" cy="15.894" r="3.858"/>
<circle fill="#032E3F" cx="26.445" cy="15.894" r="3.858"/>
<circle fill="#79C8CC" cx="26.446" cy="15.894" r="2.186"/>
<circle fill="#032E3F" cx="36.201" cy="15.894" r="3.858"/>
<circle fill="#79C8CC" cx="36.202" cy="15.894" r="2.186"/>
<circle fill="#032E3F" cx="45.957" cy="15.894" r="3.858"/>
<circle fill="#79C8CC" cx="45.958" cy="15.894" r="2.186"/>
<circle fill="#032E3F" cx="55.713" cy="15.894" r="3.858"/>
<circle fill="#79C8CC" cx="55.713" cy="15.894" r="2.186"/>
<circle fill="#032E3F" cx="6.934" cy="25.894" r="3.858"/>
<circle fill="#79C8CC" cx="6.934" cy="25.894" r="2.186"/>
<circle fill="#032E3F" cx="16.689" cy="25.894" r="3.858"/>
<circle fill="#79C8CC" cx="16.69" cy="25.894" r="2.186"/>
<circle fill="#032E3F" cx="26.445" cy="25.894" r="3.858"/>
<circle fill="#79C8CC" cx="26.446" cy="25.894" r="2.186"/>
<circle fill="#032E3F" cx="36.201" cy="25.894" r="3.858"/>
<circle fill="#032E3F" cx="45.957" cy="25.894" r="3.858"/>
<circle fill="#79C8CC" cx="45.958" cy="25.894" r="2.186"/>
<circle fill="#032E3F" cx="55.713" cy="25.894" r="3.858"/>
<circle fill="#79C8CC" cx="55.713" cy="25.894" r="2.186"/>
<circle fill="#032E3F" cx="6.934" cy="35.894" r="3.858"/>
<circle fill="#79C8CC" cx="6.934" cy="35.894" r="2.186"/>
<circle fill="#032E3F" cx="26.445" cy="35.894" r="3.858"/>
<circle fill="#79C8CC" cx="26.446" cy="35.894" r="2.186"/>
<circle fill="#032E3F" cx="36.201" cy="35.894" r="3.858"/>
<circle fill="#79C8CC" cx="36.202" cy="35.894" r="2.186"/>
<circle fill="#032E3F" cx="45.957" cy="35.894" r="3.858"/>
<circle fill="#79C8CC" cx="45.958" cy="35.894" r="2.186"/>
<circle fill="#032E3F" cx="55.713" cy="35.894" r="3.858"/>
<circle fill="#79C8CC" cx="55.713" cy="35.894" r="2.186"/>
<circle fill="#032E3F" cx="6.934" cy="45.894" r="3.858"/>
<circle fill="#79C8CC" cx="6.934" cy="45.894" r="2.186"/>
<circle fill="#032E3F" cx="16.689" cy="45.894" r="3.858"/>
<circle fill="#79C8CC" cx="16.69" cy="45.894" r="2.186"/>
<circle fill="#032E3F" cx="26.445" cy="45.894" r="3.858"/>
<circle fill="#79C8CC" cx="26.446" cy="45.894" r="2.186"/>
<circle fill="#032E3F" cx="45.957" cy="45.894" r="3.858"/>
<circle fill="#79C8CC" cx="45.958" cy="45.894" r="2.186"/>
<circle fill="#032E3F" cx="55.713" cy="45.894" r="3.858"/>
<circle fill="#79C8CC" cx="55.713" cy="45.894" r="2.186"/>
<circle fill="#032E3F" cx="6.934" cy="55.894" r="3.858"/>
<circle fill="#79C8CC" cx="6.934" cy="55.894" r="2.186"/>
<circle fill="#032E3F" cx="16.689" cy="55.894" r="3.858"/>
<circle fill="#032E3F" cx="26.445" cy="55.894" r="3.858"/>
<circle fill="#79C8CC" cx="26.446" cy="55.894" r="2.186"/>
<circle fill="#032E3F" cx="36.201" cy="55.894" r="3.858"/>
<circle fill="#79C8CC" cx="36.202" cy="55.894" r="2.186"/>
<circle fill="#032E3F" cx="55.713" cy="55.894" r="3.858"/>
<circle fill="#79C8CC" cx="55.713" cy="55.894" r="2.186"/>
<circle fill="#032E3F" cx="6.934" cy="65.894" r="3.858"/>
<circle fill="#79C8CC" cx="6.934" cy="65.894" r="2.186"/>
<circle fill="#032E3F" cx="16.689" cy="65.894" r="3.858"/>
<circle fill="#79C8CC" cx="16.69" cy="65.894" r="2.186"/>
<circle fill="#032E3F" cx="26.445" cy="65.894" r="3.858"/>
<circle fill="#032E3F" cx="36.201" cy="65.894" r="3.858"/>
<circle fill="#032E3F" cx="45.957" cy="65.894" r="3.858"/>
<circle fill="#032E3F" cx="55.713" cy="65.894" r="3.858"/>
<circle fill="#79C8CC" cx="55.713" cy="65.894" r="2.186"/>
<circle fill="#032E3F" cx="6.934" cy="75.894" r="3.858"/>
<circle fill="#79C8CC" cx="6.934" cy="75.894" r="2.186"/>
<circle fill="#032E3F" cx="16.689" cy="75.894" r="3.858"/>
<circle fill="#79C8CC" cx="16.69" cy="75.894" r="2.186"/>
<circle fill="#032E3F" cx="26.445" cy="75.894" r="3.858"/>
<circle fill="#79C8CC" cx="26.446" cy="75.894" r="2.186"/>
<circle fill="#032E3F" cx="36.201" cy="75.894" r="3.858"/>
<circle fill="#79C8CC" cx="36.202" cy="75.894" r="2.186"/>
<circle fill="#032E3F" cx="45.957" cy="75.894" r="3.858"/>
<circle fill="#79C8CC" cx="45.958" cy="75.894" r="2.186"/>
<circle fill="#032E3F" cx="55.713" cy="75.894" r="3.858"/>
<circle fill="#79C8CC" cx="55.713" cy="75.894" r="2.186"/>
<circle fill="#032E3F" cx="6.934" cy="85.894" r="3.858"/>
<circle fill="#79C8CC" cx="6.934" cy="85.894" r="2.186"/>
<circle fill="#032E3F" cx="16.689" cy="85.894" r="3.858"/>
<circle fill="#032E3F" cx="26.445" cy="85.894" r="3.858"/>
<circle fill="#79C8CC" cx="26.446" cy="85.894" r="2.186"/>
<circle fill="#032E3F" cx="45.957" cy="85.894" r="3.858"/>
<circle fill="#79C8CC" cx="45.958" cy="85.894" r="2.186"/>
<circle fill="#032E3F" cx="55.713" cy="85.894" r="3.858"/>
<circle fill="#79C8CC" cx="55.713" cy="85.894" r="2.186"/>
<circle fill="#032E3F" cx="6.934" cy="95.894" r="3.858"/>
<circle fill="#79C8CC" cx="6.934" cy="95.894" r="2.186"/>
<circle fill="#032E3F" cx="16.689" cy="95.894" r="3.858"/>
<circle fill="#79C8CC" cx="16.69" cy="95.894" r="2.186"/>
<circle fill="#032E3F" cx="26.445" cy="95.894" r="3.858"/>
<circle fill="#032E3F" cx="45.957" cy="95.894" r="3.858"/>
<circle fill="#79C8CC" cx="45.958" cy="95.894" r="2.186"/>
<circle fill="#032E3F" cx="55.713" cy="95.894" r="3.858"/>
<circle fill="#79C8CC" cx="55.713" cy="95.894" r="2.186"/>
<circle fill="#032E3F" cx="6.934" cy="105.894" r="3.858"/>
<circle fill="#79C8CC" cx="6.934" cy="105.894" r="2.186"/>
<circle fill="#032E3F" cx="16.689" cy="105.894" r="3.858"/>
<circle fill="#79C8CC" cx="16.69" cy="105.894" r="2.186"/>
<circle fill="#032E3F" cx="26.445" cy="105.894" r="3.858"/>
<circle fill="#032E3F" cx="36.201" cy="105.894" r="3.858"/>
<circle fill="#79C8CC" cx="36.202" cy="105.894" r="2.186"/>
<circle fill="#032E3F" cx="45.957" cy="105.894" r="3.858"/>
<circle fill="#79C8CC" cx="45.958" cy="105.894" r="2.186"/>
<circle fill="#032E3F" cx="55.713" cy="105.894" r="3.858"/>
<circle fill="#79C8CC" cx="55.713" cy="105.894" r="2.186"/>
<circle fill="#032E3F" cx="6.934" cy="115.895" r="3.858"/>
<circle fill="#79C8CC" cx="6.934" cy="115.895" r="2.186"/>
<circle fill="#032E3F" cx="16.689" cy="115.895" r="3.858"/>
<circle fill="#79C8CC" cx="16.69" cy="115.895" r="2.186"/>
<circle fill="#032E3F" cx="26.445" cy="115.895" r="3.858"/>
<circle fill="#79C8CC" cx="26.446" cy="115.895" r="2.186"/>
<circle fill="#032E3F" cx="36.201" cy="115.895" r="3.858"/>
<circle fill="#032E3F" cx="45.957" cy="115.895" r="3.858"/>
<circle fill="#79C8CC" cx="45.958" cy="115.895" r="2.186"/>
<circle fill="#032E3F" cx="55.713" cy="115.895" r="3.858"/>
<circle fill="#79C8CC" cx="55.713" cy="115.895" r="2.186"/>
<circle fill="#032E3F" cx="6.934" cy="125.895" r="3.858"/>
<circle fill="#032E3F" cx="16.689" cy="125.895" r="3.858"/>
<circle fill="#032E3F" cx="26.445" cy="125.895" r="3.858"/>
<circle fill="#032E3F" cx="36.201" cy="125.895" r="3.858"/>
<circle fill="#79C8CC" cx="36.202" cy="125.895" r="2.186"/>
<circle fill="#032E3F" cx="45.957" cy="125.895" r="3.858"/>
<circle fill="#79C8CC" cx="45.958" cy="125.895" r="2.186"/>
<circle fill="#032E3F" cx="55.713" cy="125.895" r="3.858"/>
<circle fill="#79C8CC" cx="55.713" cy="125.895" r="2.186"/>
<circle fill="#032E3F" cx="6.934" cy="135.895" r="3.858"/>
<circle fill="#79C8CC" cx="6.934" cy="135.895" r="2.186"/>
<circle fill="#032E3F" cx="16.689" cy="135.895" r="3.858"/>
<circle fill="#79C8CC" cx="16.69" cy="135.895" r="2.186"/>
<circle fill="#032E3F" cx="26.445" cy="135.895" r="3.858"/>
<circle fill="#79C8CC" cx="26.446" cy="135.895" r="2.186"/>
<circle fill="#032E3F" cx="36.201" cy="135.895" r="3.858"/>
<circle fill="#032E3F" cx="45.957" cy="135.895" r="3.858"/>
<circle fill="#79C8CC" cx="45.958" cy="135.895" r="2.186"/>
<circle fill="#032E3F" cx="55.713" cy="135.895" r="3.858"/>
<circle fill="#79C8CC" cx="55.713" cy="135.895" r="2.186"/>
<circle fill="#032E3F" cx="6.934" cy="145.895" r="3.858"/>
<circle fill="#79C8CC" cx="6.934" cy="145.895" r="2.186"/>
<circle fill="#032E3F" cx="16.689" cy="145.895" r="3.858"/>
<circle fill="#79C8CC" cx="16.69" cy="145.895" r="2.186"/>
<circle fill="#032E3F" cx="36.201" cy="145.895" r="3.858"/>
<circle fill="#79C8CC" cx="36.202" cy="145.895" r="2.186"/>
<circle fill="#032E3F" cx="45.957" cy="145.895" r="3.858"/>
<circle fill="#032E3F" cx="55.713" cy="145.895" r="3.858"/>
<circle fill="#032E3F" cx="6.934" cy="155.895" r="3.858"/>
<circle fill="#79C8CC" cx="6.934" cy="155.895" r="2.186"/>
<circle fill="#032E3F" cx="16.689" cy="155.895" r="3.858"/>
<circle fill="#79C8CC" cx="16.69" cy="155.895" r="2.186"/>
<circle fill="#032E3F" cx="26.445" cy="155.895" r="3.858"/>
<circle fill="#79C8CC" cx="26.446" cy="155.895" r="2.186"/>
<circle fill="#032E3F" cx="36.201" cy="155.895" r="3.858"/>
<circle fill="#79C8CC" cx="36.202" cy="155.895" r="2.186"/>
<circle fill="#032E3F" cx="55.713" cy="155.895" r="3.858"/>
<circle fill="#79C8CC" cx="55.713" cy="155.895" r="2.186"/>
<circle fill="#032E3F" cx="6.934" cy="165.895" r="3.858"/>
<circle fill="#79C8CC" cx="6.934" cy="165.895" r="2.186"/>
<circle fill="#032E3F" cx="16.689" cy="165.895" r="3.858"/>
<circle fill="#79C8CC" cx="16.69" cy="165.895" r="2.186"/>
<circle fill="#032E3F" cx="26.445" cy="165.895" r="3.858"/>
<circle fill="#032E3F" cx="36.201" cy="165.895" r="3.858"/>
<circle fill="#032E3F" cx="45.957" cy="165.895" r="3.858"/>
<circle fill="#79C8CC" cx="45.958" cy="165.895" r="2.186"/>
<circle fill="#032E3F" cx="55.713" cy="165.895" r="3.858"/>
<circle fill="#79C8CC" cx="55.713" cy="165.895" r="2.186"/>
<circle fill="#032E3F" cx="6.934" cy="175.895" r="3.858"/>
<circle fill="#032E3F" cx="16.689" cy="175.895" r="3.858"/>
<circle fill="#79C8CC" cx="16.69" cy="175.895" r="2.186"/>
<circle fill="#032E3F" cx="26.445" cy="175.895" r="3.858"/>
<circle fill="#79C8CC" cx="26.446" cy="175.895" r="2.186"/>
<circle fill="#032E3F" cx="36.201" cy="175.895" r="3.858"/>
<circle fill="#79C8CC" cx="36.202" cy="175.895" r="2.186"/>
<circle fill="#032E3F" cx="45.957" cy="175.895" r="3.858"/>
<circle fill="#79C8CC" cx="45.958" cy="175.895" r="2.186"/>
<circle fill="#032E3F" cx="6.934" cy="185.895" r="3.858"/>
<circle fill="#79C8CC" cx="6.934" cy="185.895" r="2.186"/>
<circle fill="#032E3F" cx="16.689" cy="185.895" r="3.858"/>
<circle fill="#032E3F" cx="26.445" cy="185.895" r="3.858"/>
<circle fill="#79C8CC" cx="26.446" cy="185.895" r="2.186"/>
<circle fill="#032E3F" cx="36.201" cy="185.895" r="3.858"/>
<circle fill="#79C8CC" cx="36.202" cy="185.895" r="2.186"/>
<circle fill="#032E3F" cx="45.957" cy="185.895" r="3.858"/>
<circle fill="#79C8CC" cx="45.958" cy="185.895" r="2.186"/>
<circle fill="#032E3F" cx="6.934" cy="195.895" r="3.858"/>
<circle fill="#79C8CC" cx="6.934" cy="195.895" r="2.186"/>
<circle fill="#032E3F" cx="16.689" cy="195.895" r="3.858"/>
<circle fill="#79C8CC" cx="16.69" cy="195.895" r="2.186"/>
<circle fill="#032E3F" cx="26.445" cy="195.895" r="3.858"/>
<circle fill="#79C8CC" cx="26.446" cy="195.895" r="2.186"/>
<circle fill="#032E3F" cx="36.201" cy="195.895" r="3.858"/>
<circle fill="#79C8CC" cx="36.202" cy="195.895" r="2.186"/>
<circle fill="#032E3F" cx="45.957" cy="195.895" r="3.858"/>
<circle fill="#79C8CC" cx="45.958" cy="195.895" r="2.186"/>
<circle fill="#032E3F" cx="55.713" cy="195.895" r="3.858"/>
<circle fill="#79C8CC" cx="55.713" cy="195.895" r="2.186"/>
<circle fill="#032E3F" cx="6.934" cy="205.895" r="3.858"/>
<circle fill="#79C8CC" cx="6.934" cy="205.895" r="2.186"/>
<circle fill="#032E3F" cx="16.689" cy="205.895" r="3.858"/>
<circle fill="#79C8CC" cx="16.69" cy="205.895" r="2.186"/>
<circle fill="#032E3F" cx="26.445" cy="205.895" r="3.858"/>
<circle fill="#79C8CC" cx="26.446" cy="205.895" r="2.186"/>
<circle fill="#032E3F" cx="36.201" cy="205.895" r="3.858"/>
<circle fill="#032E3F" cx="55.713" cy="205.895" r="3.858"/>
<circle fill="#79C8CC" cx="55.713" cy="205.895" r="2.186"/>
</svg>
