<?xml version="1.0" encoding="utf-8"?>
<!-- Generator: Adobe Illustrator 15.0.0, SVG Export Plug-In . SVG Version: 6.00 Build 0)  -->
<!DOCTYPE svg PUBLIC "-//W3C//DTD SVG 1.0//EN" "http://www.w3.org/TR/2001/REC-SVG-20010904/DTD/svg10.dtd">
<svg version="1.0" id="Capa_1" xmlns="http://www.w3.org/2000/svg" xmlns:xlink="http://www.w3.org/1999/xlink" x="0px" y="0px"
	 width="61.819px" height="211.76px" viewBox="0 0 61.819 211.76" enable-background="new 0 0 61.819 211.76" xml:space="preserve">
<g>
	<rect x="-0.241" y="0.033" fill="#79C8CC" width="62.228" height="211.967"/>
	<g>
		
			<polyline fill="none" stroke="#F1870B" stroke-width="5" stroke-linecap="round" stroke-linejoin="round" stroke-miterlimit="10" points="
			5.511,42.509 13.501,60.252 22.021,29.759 30.54,43.918 39.457,16.334 47.04,32.668 54.873,6.168 		"/>
		<rect x="2.532" y="42.527" fill="#032E3F" width="5.611" height="135.262"/>
		<rect x="10.906" y="44.556" fill="#032E3F" width="5.611" height="131.205"/>
		<rect x="19.28" y="29.781" fill="#032E3F" width="5.611" height="160.755"/>
		<rect x="27.654" y="50.815" fill="#032E3F" width="5.611" height="118.687"/>
		<rect x="36.028" y="59.963" fill="#032E3F" width="5.611" height="152.142"/>
		<rect x="44.402" y="22.653" fill="#032E3F" width="5.611" height="175.01"/>
		<rect x="52.776" y="32.248" fill="#032E3F" width="5.611" height="155.82"/>
		<circle fill="#032E3F" cx="5.51" cy="42.509" r="3.859"/>
		<circle fill="#79C8CC" cx="5.51" cy="42.509" r="2.186"/>
		<circle fill="#032E3F" cx="13.501" cy="60.252" r="3.858"/>
		<circle fill="#79C8CC" cx="13.501" cy="60.252" r="2.186"/>
		<circle fill="#032E3F" cx="22.021" cy="29.759" r="3.858"/>
		<circle fill="#79C8CC" cx="22.021" cy="29.759" r="2.186"/>
		<circle fill="#032E3F" cx="30.54" cy="43.918" r="3.858"/>
		<circle fill="#79C8CC" cx="30.541" cy="43.918" r="2.186"/>
		<circle fill="#032E3F" cx="39.457" cy="16.334" r="3.858"/>
		<circle fill="#79C8CC" cx="39.458" cy="16.334" r="2.186"/>
		<circle fill="#032E3F" cx="47.04" cy="32.668" r="3.858"/>
		<circle fill="#79C8CC" cx="47.041" cy="32.668" r="2.186"/>
		<circle fill="#032E3F" cx="54.873" cy="6.168" r="3.858"/>
		<circle fill="#79C8CC" cx="54.874" cy="6.168" r="2.186"/>
		<rect x="3.052" y="164.112" fill="#032E3F" width="21.458" height="45.684"/>
		<polyline fill="#032E3F" points="21.164,171.243 28.894,163.514 38.122,163.514 38.122,188.201 47.121,188.201 47.121,172.281 
			55.542,172.281 58.312,187.971 62.349,187.971 62.349,211.965 0.167,211.965 0.167,172.279 21.049,170.895 		"/>
		<rect x="31.333" y="110.011" fill="#032E3F" width="16.072" height="81.032"/>
		<polygon fill="#032E3F" points="56.463,179.98 47.58,179.98 47.58,150.002 56.463,165.546 		"/>
		<rect x="32.354" y="114.4" fill="#79C8CC" width="1.971" height="3.183"/>
		<rect x="45.593" y="140.656" fill="#79C8CC" width="1.971" height="3.183"/>
		<rect x="32.354" y="128.863" fill="#79C8CC" width="1.971" height="3.183"/>
		<rect x="35.741" y="128.863" fill="#79C8CC" width="1.971" height="3.183"/>
		<rect x="39.129" y="128.863" fill="#79C8CC" width="1.971" height="3.183"/>
		<polygon fill="#FFFFFF" points="13.06,199.849 12.44,199.849 6.894,196.276 13.06,198.921 		"/>
		<polygon fill="#FFFFFF" points="10.504,200.552 9.885,200.552 4.338,196.979 10.504,199.624 		"/>
		<polygon fill="#FFFFFF" points="35.185,208.349 34.565,208.349 29.02,204.776 35.185,207.421 		"/>
		<polygon fill="#FFFFFF" points="32.629,209.052 32.01,209.052 26.463,205.479 32.629,208.124 		"/>
		<polygon fill="#F1870B" points="18.193,194.865 5.963,190.715 5.963,189.787 6.583,189.787 		"/>
		<polygon fill="#F1870B" points="15.639,195.568 3.409,191.418 3.409,190.49 4.028,190.49 		"/>
		<polygon fill="#F1870B" points="31.762,201.275 19.531,197.125 19.531,196.197 20.15,196.197 		"/>
		<polygon fill="#F1870B" points="29.207,201.979 16.977,197.828 16.977,196.9 17.596,196.9 		"/>
		<polygon fill="#F1870B" points="51.778,208.59 39.548,204.439 39.548,203.512 40.167,203.512 		"/>
		<polygon fill="#F1870B" points="49.224,209.293 36.993,205.143 36.993,204.215 37.612,204.215 		"/>
		<g>
			<path fill="#79C8CC" d="M52.8,202.216v-9.122c0,0,0.001-4.046-1.463-5.552c-0.989,0.259-2.108-0.387-2.151-1.075
				s2.064-0.817,2.409,0.086s1.851,5.034,1.808,7.616s0,8.306,0,8.306l-0.947-0.388"/>
			<path fill="#79C8CC" d="M38.42,197.668v-7.296c0,0,0.001-3.236-1.17-4.441c-0.791,0.207-1.687-0.309-1.721-0.859
				s1.651-0.654,1.927,0.068s1.48,4.027,1.446,6.092c-0.035,2.065,0,6.644,0,6.644l-0.758-0.31"/>
			<path fill="#79C8CC" d="M24.04,193.121v-5.472c0,0,0.001-2.426-0.877-3.329c-0.593,0.155-1.265-0.232-1.291-0.646
				c-0.025-0.412,1.238-0.489,1.445,0.053c0.207,0.541,1.11,3.019,1.084,4.567c-0.026,1.548,0,4.981,0,4.981l-0.568-0.233"/>
			<path fill="#79C8CC" d="M9.66,188.573v-3.646c0,0,0.001-1.616-0.584-2.219c-0.396,0.104-0.843-0.154-0.86-0.43
				c-0.017-0.274,0.825-0.326,0.963,0.035c0.138,0.36,0.739,2.012,0.723,3.043c-0.018,1.031,0,3.319,0,3.319l-0.379-0.155"/>
		</g>
		<polygon fill="#79C8CC" points="1.377,186.713 61.074,209.866 61.446,208.378 		"/>
	</g>
</g>
</svg>
